<svg xmlns="http://www.w3.org/2000/svg" width="32" height="37" viewBox="0 0 32 37">
    <g fill="none" fill-rule="evenodd">
        <path d="M-8-6h48v48H-8z"/>
        <g transform="translate(-8 -6)">
            <path d="M0 0h48v48H0z"/>
            <path fill="#D3D3D3" fill-rule="nonzero" d="M38 16h-3.62c-.9-1.56-2.14-2.9-3.64-3.92l1.86-1.86c.78-.78.78-2.04 0-2.82-.78-.78-2.04-.78-2.82 0l-2.94 2.94c-.92-.22-1.86-.34-2.84-.34-.98 0-1.92.12-2.82.34L18.22 7.4c-.78-.78-2.04-.78-2.82 0-.78.78-.78 2.04 0 2.82l1.84 1.86A12.124 12.124 0 0 0 13.62 16H10c-1.1 0-2 .9-2 2s.9 2 2 2h2.18c-.1.66-.18 1.32-.18 2v2h-2c-1.1 0-2 .9-2 2s.9 2 2 2h2v2c0 .68.08 1.34.18 2H10c-1.1 0-2 .9-2 2s.9 2 2 2h3.62c2.08 3.58 5.94 6 10.38 6s8.3-2.42 10.38-6H38c1.1 0 2-.9 2-2s-.9-2-2-2h-2.18c.1-.66.18-1.32.18-2v-2h2c1.1 0 2-.9 2-2s-.9-2-2-2h-2v-2c0-.68-.08-1.34-.18-2H38c1.1 0 2-.9 2-2s-.9-2-2-2zM26 32h-4c-1.1 0-2-.9-2-2s.9-2 2-2h4c1.1 0 2 .9 2 2s-.9 2-2 2zm0-8h-4c-1.1 0-2-.9-2-2s.9-2 2-2h4c1.1 0 2 .9 2 2s-.9 2-2 2z"/>
            <rect width="4" height="42" x="21.581" y="4.456" fill="#D3D3D3" fill-rule="nonzero" stroke="#FFF" rx="1.5" transform="rotate(41 23.581 25.456)"/>
        </g>
    </g>
</svg>
