<svg xmlns="http://www.w3.org/2000/svg" width="48" height="48" viewBox="0 0 48 48">
    <g fill="none" fill-rule="evenodd">
        <circle cx="24" cy="24" r="23" stroke="#8a959d" stroke-width="2"/>
        <path fill="#8a959d" d="M29.393 12.005L26.31 12c-3.465 0-5.704 2.297-5.704 5.853v2.699h-3.101a.485.485 0 0 0-.485.485v3.91c0 .268.217.485.485.485h3.1v9.866c0 .268.218.485.486.485h4.046a.485.485 0 0 0 .485-.485v-9.866h3.625a.485.485 0 0 0 .485-.485l.002-3.91a.486.486 0 0 0-.485-.485H25.62v-2.288c0-1.1.262-1.658 1.694-1.658h2.078a.485.485 0 0 0 .484-.485V12.49a.485.485 0 0 0-.484-.485z"/>
    </g>
</svg>
