<svg xmlns="http://www.w3.org/2000/svg" width="48" height="48" viewBox="0 0 48 48">
    <g fill="none" fill-rule="nonzero">
        <circle cx="24" cy="24" r="23" stroke="#8a959d" stroke-width="2"/>
        <path fill="#8a959d" d="M18.96 12h10.08c3.84 0 6.96 3.12 6.96 6.96v10.08A6.96 6.96 0 0 1 29.04 36H18.96C15.12 36 12 32.88 12 29.04V18.96A6.96 6.96 0 0 1 18.96 12zm-.24 2.4a4.32 4.32 0 0 0-4.32 4.32v10.56a4.317 4.317 0 0 0 4.32 4.32h10.56a4.32 4.32 0 0 0 4.32-4.32V18.72a4.317 4.317 0 0 0-4.32-4.32H18.72zm11.58 1.8a1.5 1.5 0 1 1 0 3 1.5 1.5 0 0 1 0-3zM24 18a6 6 0 1 1 0 12 6 6 0 0 1 0-12zm0 2.4a3.6 3.6 0 1 0 0 7.2 3.6 3.6 0 0 0 0-7.2z"/>
    </g>
</svg>
