<svg xmlns="http://www.w3.org/2000/svg" width="142" height="99" viewBox="0 0 142 99">
    <g fill="none" fill-rule="nonzero" opacity=".54">
        <rect width="142" height="99" fill="#FFF" rx="10"/>
        <path fill="#170030" d="M46.717 32.418c-.358 0-.578.22-.578.618v3.127h-4.8v-3.127c0-.399-.22-.618-.578-.618-.359 0-.578.22-.578.618v7.55c0 .398.22.617.578.617.359 0 .578-.219.578-.617v-3.347h4.8v3.347c0 .398.22.617.578.617.359 0 .578-.219.578-.617v-7.55c-.02-.399-.22-.618-.578-.618zm5.916 4.283l3.327-3.346c.16-.16.22-.28.22-.459 0-.259-.18-.478-.499-.478-.16 0-.299.06-.438.2l-3.267 3.266c-.18.18-.358.28-.617.28h-.678v-3.128c0-.399-.219-.618-.577-.618-.359 0-.578.22-.578.618v7.55c0 .398.219.617.578.617.358 0 .577-.219.577-.617v-3.347h.598c.259 0 .438.1.617.279l3.467 3.466c.159.16.278.2.458.2a.502.502 0 0 0 .518-.519c0-.179-.08-.318-.24-.498l-3.466-3.466zm7.192-14.681c-.518.279-1.235.458-1.913.458-1.115 0-1.812-.478-1.812-1.335 0-.757.597-1.354 1.812-1.354.638 0 1.215.1 1.913.299v1.932zm-1.753-7.012c-.976 0-1.853.239-2.41.478-.479.2-.678.458-.678.837a.74.74 0 0 0 .737.757c.2 0 .418-.08.638-.16a4.7 4.7 0 0 1 1.573-.298c1.335 0 1.893.498 1.893 1.533v.698c-.777-.2-1.395-.3-2.132-.3-2.191 0-3.267 1.256-3.267 2.63 0 1.594 1.196 2.79 3.327 2.79 1.653 0 2.908-.559 3.426-.897.24-.16.319-.319.319-.658v-4.243c.02-2.171-1.235-3.167-3.426-3.167zm21.016 5.637c-.399 0-.618.24-.757.498-.3.658-.937 1.116-1.813 1.116-1.235 0-1.972-.737-2.072-1.853a9.594 9.594 0 0 1 0-1.852c.1-1.096.837-1.853 2.072-1.853.876 0 1.514.458 1.813 1.116.159.259.378.498.757.498.498 0 .856-.319.856-.797 0-.259-.1-.518-.259-.797-.518-.936-1.613-1.713-3.207-1.713-2.151 0-3.586 1.355-3.765 3.287-.06.637-.06 1.713 0 2.35.18 1.933 1.614 3.287 3.765 3.287 1.594 0 2.69-.757 3.207-1.713.16-.279.24-.538.24-.797 0-.458-.34-.797-.837-.777zm-39.124 1.733l-3.008-3.007 2.849-2.85c.219-.218.338-.437.338-.696a.711.711 0 0 0-.737-.737c-.259 0-.438.1-.677.338l-2.888 2.889a.723.723 0 0 1-.558.239h-.598v-2.57c0-.578-.338-.916-.876-.916s-.877.338-.877.916v6.932c0 .578.339.917.877.917s.876-.339.876-.917v-2.769h.498c.22 0 .399.1.558.24l3.088 3.087c.259.26.458.359.717.359.458 0 .777-.32.777-.777-.02-.22-.14-.458-.359-.678zm29.323-1.972c-.1 1.096-.797 1.853-2.052 1.853-.657 0-1.474-.2-1.872-.478v-4.602c.398-.279 1.215-.498 1.872-.498 1.255 0 1.952.757 2.052 1.853.04.578.06 1.275 0 1.872zm-1.992-5.398c-1.514 0-2.75.538-3.227.837-.399.239-.439.418-.439 1.095v8.885c0 .577.34.916.877.916.538 0 .876-.339.876-.916v-2.311c.518.259 1.315.438 2.072.438 2.012 0 3.387-1.334 3.586-3.267.06-.657.06-1.733 0-2.39-.2-1.952-1.594-3.287-3.745-3.287zM36.936 39.61c-.637.338-1.514.597-2.31.597-1.435 0-2.251-.617-2.251-1.653 0-.936.717-1.654 2.25-1.654.757 0 1.395.12 2.311.379v2.33zm-2.052-7.271c-.996 0-1.972.279-2.51.518-.358.159-.517.318-.517.597 0 .299.239.518.518.518.139 0 .298-.06.458-.14a5.205 5.205 0 0 1 1.932-.398c1.494 0 2.171.598 2.171 1.952v.797a7.777 7.777 0 0 0-2.41-.358c-2.171 0-3.287 1.255-3.287 2.669 0 1.653 1.255 2.749 3.227 2.749 1.634 0 2.889-.578 3.347-.916.179-.14.239-.24.239-.498v-4.482c.02-2.032-1.176-3.008-3.168-3.008zm-8.386 7.649h-3.247v-4.621h3.247c1.713 0 2.41.836 2.41 2.27-.02 1.494-.717 2.351-2.41 2.351zm.14-5.717H23.23v-3.566h5.677c.379 0 .638-.219.638-.578 0-.338-.26-.557-.638-.557h-5.816c-.658 0-1.016.358-1.016 1.016v9.502c0 .657.378 1.016 1.016 1.016h3.545c2.172 0 3.447-1.275 3.447-3.486 0-2.132-1.275-3.347-3.447-3.347zm20-15.956h2.848c1.355 0 1.952.697 1.952 1.872 0 1.215-.597 1.933-1.952 1.933h-2.849v-3.805zm-.439 5.478h3.486c2.251 0 3.586-1.315 3.586-3.646 0-2.19-1.335-3.426-3.586-3.426h-3.048v-2.809h5.1c.558 0 .916-.338.916-.856 0-.498-.358-.837-.916-.837H46.2c-.876 0-1.354.478-1.354 1.355v8.844c0 .897.478 1.375 1.354 1.375zm-21.633-5.22l1.593-4.541c.06-.16.12-.22.24-.22.119 0 .179.06.219.22l1.593 4.542h-3.645zm7.032 4.463c0-.16-.02-.319-.12-.558l-3.227-8.785c-.378-1.075-.956-1.534-1.853-1.534-.896 0-1.474.459-1.852 1.534l-3.247 8.785c-.1.279-.12.438-.12.558 0 .458.359.837.877.837.418 0 .717-.2.896-.718l1.056-2.988h4.78l1.057 2.988c.159.498.478.698.876.698.518.02.877-.359.877-.817z"/>
        <path fill="#009C32" d="M120.223 69.052c-1.414-3.586-4.94-5.558-8.745-4.86l-7.809 1.394a2.405 2.405 0 0 0-1.932 2.769 2.405 2.405 0 0 0 2.769 1.932l7.809-1.395c1.852-.338 3.008.777 3.466 1.933.458 1.155.378 2.749-1.215 3.765l-11.474 7.43a3.34 3.34 0 0 1-3.467.14c-1.115-.598-1.772-1.714-1.772-2.989V55.068a2.385 2.385 0 0 0-2.39-2.39 2.397 2.397 0 0 0-2.391 2.39V79.13c0 3.048 1.593 5.718 4.263 7.172a8.098 8.098 0 0 0 3.904 1.016 8.097 8.097 0 0 0 4.442-1.335l11.474-7.43c3.247-2.092 4.482-5.917 3.068-9.502m-40.339-4.88l-7.808 1.394a2.405 2.405 0 0 0-1.933 2.769 2.405 2.405 0 0 0 2.77 1.932l7.808-1.394c1.853-.34 3.008.776 3.466 1.932.458 1.155.379 2.749-1.215 3.765L71.498 82a3.34 3.34 0 0 1-3.466.14c-1.116-.598-1.773-1.714-1.773-2.989V60.865c0-3.048-1.594-5.718-4.263-7.172-2.67-1.454-5.797-1.334-8.347.319L24.825 72.697c-3.247 2.112-4.462 5.936-3.048 9.522 1.414 3.586 4.94 5.558 8.745 4.86l25.18-4.521a2.405 2.405 0 0 0 1.931-2.77 2.405 2.405 0 0 0-2.768-1.931l-25.18 4.521c-1.852.34-3.008-.776-3.466-1.932-.458-1.155-.378-2.749 1.215-3.765L56.26 57.996a3.34 3.34 0 0 1 3.466-.14c1.116.598 1.773 1.714 1.773 2.989V79.13c0 3.048 1.594 5.718 4.263 7.172a8.098 8.098 0 0 0 3.904 1.016 7.985 7.985 0 0 0 4.423-1.335l11.474-7.43c3.247-2.112 4.462-5.936 3.048-9.522-1.395-3.586-4.92-5.538-8.726-4.86"/>
        <rect width="142" height="99" fill="#FFF" rx="10" style="mix-blend-mode:color"/>
    </g>
</svg>
