<svg xmlns="http://www.w3.org/2000/svg" width="142" height="99" viewBox="0 0 142 99">
    <g fill="none" fill-rule="evenodd">
        <rect width="142" height="99" fill="#FFF" fill-rule="nonzero" rx="10"/>
        <path fill="#009B3A" fill-rule="nonzero" d="M76.41 67.128l-6.708 1.206a2.046 2.046 0 0 0 .723 4.028l6.707-1.207a2.571 2.571 0 0 1 2.974 1.658 2.571 2.571 0 0 1-1.038 3.24l-9.845 6.375a2.882 2.882 0 0 1-2.982.115 2.875 2.875 0 0 1-1.525-2.565V64.279a6.917 6.917 0 0 0-3.664-6.161 6.916 6.916 0 0 0-7.162.275L29.128 74.434a6.635 6.635 0 0 0-2.618 8.18 6.636 6.636 0 0 0 7.5 4.18l21.625-3.887a2.046 2.046 0 0 0-.723-4.028l-21.625 3.888a2.57 2.57 0 0 1-2.972-1.657 2.572 2.572 0 0 1 1.04-3.24l24.76-16.043a2.881 2.881 0 0 1 2.982-.115 2.882 2.882 0 0 1 1.525 2.566v15.704a6.919 6.919 0 0 0 3.664 6.16 7.02 7.02 0 0 0 3.357.867 6.981 6.981 0 0 0 3.805-1.142l9.845-6.375a6.625 6.625 0 0 0 2.625-8.183 6.638 6.638 0 0 0-7.5-4.18m34.625 4.18a6.634 6.634 0 0 0-7.5-4.18l-6.707 1.206a2.046 2.046 0 0 0 .722 4.028l6.708-1.206a2.57 2.57 0 0 1 2.972 1.656 2.571 2.571 0 0 1-1.036 3.24l-9.846 6.375a2.882 2.882 0 0 1-2.983.115 2.875 2.875 0 0 1-1.53-2.561V59.308a2.048 2.048 0 0 0-4.096 0v20.674a6.92 6.92 0 0 0 3.671 6.16 7.022 7.022 0 0 0 3.359.867 6.981 6.981 0 0 0 3.805-1.142l9.846-6.375a6.634 6.634 0 0 0 2.615-8.184"/>
        <path fill="#10002B" fill-rule="nonzero" d="M85.647 19.742a.901.901 0 0 0-.788.52 1.983 1.983 0 0 1-1.875 1.147 1.976 1.976 0 0 1-2.125-1.901 11.181 11.181 0 0 1 0-1.92 1.981 1.981 0 0 1 2.125-1.904 1.971 1.971 0 0 1 1.875 1.153c.146.305.45.503.788.513a.799.799 0 0 0 .875-.831 1.72 1.72 0 0 0-.26-.819 3.594 3.594 0 0 0-3.3-1.75 3.65 3.65 0 0 0-3.874 3.387 15.414 15.414 0 0 0 0 2.427 3.657 3.657 0 0 0 3.875 3.391 3.595 3.595 0 0 0 3.303-1.758c.151-.247.237-.529.25-.818a.798.798 0 0 0-.875-.83l.006-.006zM51.767 23h3.58a3.396 3.396 0 0 0 3.703-3.75 3.295 3.295 0 0 0-3.703-3.525h-3.125v-2.905h5.264a.856.856 0 0 0 .949-.875.851.851 0 0 0-.949-.857h-5.711a1.258 1.258 0 0 0-1.398 1.398v9.109a1.258 1.258 0 0 0 1.398 1.397l-.009.008zm.453-5.649h2.938a1.75 1.75 0 0 1 2.01 1.931 1.775 1.775 0 0 1-2.01 1.982h-2.936V17.35l-.002-.001zm21.282-3.405a6.92 6.92 0 0 0-3.328.852c-.412.244-.458.437-.458 1.125v9.155a.854.854 0 0 0 .894.95.857.857 0 0 0 .903-.95V22.69c.674.302 1.405.46 2.144.461a3.549 3.549 0 0 0 3.687-3.375c.062-.817.062-1.638 0-2.456a3.59 3.59 0 0 0-3.841-3.375zm2.053 5.563a1.951 1.951 0 0 1-2.111 1.91 3.855 3.855 0 0 1-1.931-.5v-4.74a3.816 3.816 0 0 1 1.93-.5 1.95 1.95 0 0 1 2.112 1.915c.055.638.055 1.28 0 1.918v-.003zM64.016 13.94a6.805 6.805 0 0 0-2.49.491c-.487.199-.696.483-.692.86a.757.757 0 0 0 .76.771c.229-.017.453-.075.662-.17a4.659 4.659 0 0 1 1.625-.316c1.375 0 1.943.52 1.943 1.587v.717a7.97 7.97 0 0 0-2.186-.306c-2.263 0-3.367 1.288-3.367 2.703 0 1.637 1.239 2.867 3.429 2.867a6.655 6.655 0 0 0 3.521-.923.692.692 0 0 0 .337-.671v-4.349c0-2.237-1.29-3.262-3.54-3.262l-.002.001zm1.808 7.223a4.401 4.401 0 0 1-1.964.482c-1.154 0-1.875-.5-1.875-1.367 0-.785.617-1.394 1.867-1.394.67.003 1.336.11 1.973.315l-.001 1.963zm-20.488.364l-3.097-3.1 2.937-2.937a.993.993 0 0 0 .344-.715.733.733 0 0 0-.764-.75.934.934 0 0 0-.706.348l-2.985 2.978a.765.765 0 0 1-.569.25h-.608V14.97a.852.852 0 0 0-.9-.949.851.851 0 0 0-.89.949v7.15a.855.855 0 0 0 .893.952.856.856 0 0 0 .899-.952v-2.853h.51c.217 0 .424.09.57.25l3.185 3.185a.981.981 0 0 0 .741.365.769.769 0 0 0 .801-.793 1.039 1.039 0 0 0-.36-.75v.005zm-8.614.673a1.584 1.584 0 0 0-.125-.581l-3.316-9.045C32.883 11.47 32.3 11 31.371 11c-.927 0-1.511.47-1.91 1.574l-3.336 9.05c-.076.184-.119.38-.125.58a.864.864 0 0 0 .894.86.924.924 0 0 0 .919-.735l1.078-3.075h4.931l1.088 3.083c.09.43.473.734.911.727a.866.866 0 0 0 .901-.864zm-7.25-4.589l1.644-4.684c.063-.163.118-.222.239-.222s.176.059.235.223l1.652 4.683h-3.77z"/>
        <path fill="#10002B" d="M26.564 41.486c.25 0 .461-.092.522-.497l1.61-11.008c.046-.323.128-.415.297-.415.138 0 .22.072.292.364l2.521 10.29c.226.902.64 1.266 1.348 1.266.687 0 1.102-.364 1.327-1.256l2.553-10.3c.071-.292.153-.364.292-.364.169 0 .261.092.307.415l1.645 10.998c.051.333.2.507.543.507.308 0 .549-.164.549-.471a1.63 1.63 0 0 0-.026-.287L38.68 29.72c-.134-.897-.63-1.22-1.353-1.22-.661 0-1.107.323-1.287 1.066l-2.542 10.48c-.061.256-.128.374-.317.374-.19 0-.236-.118-.297-.364l-2.553-10.49c-.179-.743-.63-1.066-1.291-1.066-.723 0-1.22.323-1.358 1.21l-1.66 11.115a.853.853 0 0 0-.021.19c0 .307.261.471.564.471zm20.12-9.578c-2.2 0-3.757 1.491-3.962 3.654-.067.676-.067 1.706.01 2.388.225 2.163 1.753 3.618 4.038 3.618 1.05 0 1.948-.2 2.762-.605.287-.148.523-.338.513-.61-.01-.276-.19-.46-.44-.46-.185 0-.293.056-.518.148a5.76 5.76 0 0 1-2.317.476c-1.732 0-2.85-1.04-3.003-2.613-.015-.21-.036-.426-.04-.661h5.903c.722 0 .83-.128.83-.887v-.666c0-2.188-1.425-3.782-3.777-3.782zm2.72 4.361h-5.678c.005-.236.026-.456.041-.661.149-1.573 1.271-2.65 2.916-2.65 1.737 0 2.89 1.159 2.721 3.311zm12.022 4.105h-.83v-7.318c0-.794-.226-1.02-1.026-1.02h-4.16c-.795 0-1.02.226-1.02 1.02v2.178c0 2.998-.354 5.14-1.518 5.14h-.092c-.333 0-.522.2-.522.559v2.008c0 .364.19.559.522.559.333 0 .523-.195.523-.559v-1.537h7.6v1.537c0 .364.19.559.523.559s.522-.195.522-.559v-2.008c0-.36-.19-.56-.522-.56zm-5.986-5.156v-2.152h4.105v7.308h-5.1c.82-.969.995-2.875.995-5.156zm15.82-3.264c-.446 0-.708.272-1.107.876l-4.89 7.441h-.035c.036-1.055.051-3.525.051-5.345v-2.413c0-.36-.19-.559-.523-.559-.338 0-.527.2-.527.559v8.076c0 .58.353.897.825.897.46 0 .671-.282 1.096-.922l4.9-7.462h.056c-.036 1.358-.036 2.721-.036 4.177v3.643c0 .364.19.564.523.564s.522-.2.522-.564v-8.066c0-.58-.369-.902-.855-.902zm12.452 8.42h-.83v-7.861c0-.36-.19-.559-.528-.559-.333 0-.522.2-.522.559v7.86h-5.427v-7.86c0-.36-.19-.559-.523-.559-.338 0-.528.2-.528.559v7.871c0 .794.23 1.02 1.025 1.02h6.811v1.537c0 .364.19.559.522.559.333 0 .523-.195.523-.559v-2.008c0-.36-.19-.56-.523-.56zm9.926-8.42c-.446 0-.707.272-1.107.876l-4.889 7.441h-.036c.036-1.055.052-3.525.052-5.345v-2.413c0-.36-.19-.559-.523-.559-.338 0-.528.2-.528.559v8.076c0 .58.354.897.825.897.461 0 .672-.282 1.097-.922l4.9-7.462h.055c-.035 1.358-.035 2.721-.035 4.177v3.643c0 .364.19.564.522.564.333 0 .523-.2.523-.564v-8.066c0-.58-.369-.902-.856-.902zm11.377 0c-.333 0-.523.2-.523.559v3.602h-5.699v-3.602c0-.36-.19-.559-.522-.559-.339 0-.528.2-.528.559v8.41c0 .363.19.563.528.563.333 0 .522-.2.522-.564v-3.797h5.7v3.797c0 .364.189.564.522.564s.523-.2.523-.564v-8.41c0-.358-.19-.558-.523-.558zm6.477 9.614c1.773 0 3.131-.635 3.618-.994.18-.139.236-.236.236-.492v-4.956c0-2.214-1.291-3.254-3.393-3.254-1.091 0-2.188.307-2.757.569-.343.154-.507.297-.497.579.01.272.226.497.487.497.128 0 .292-.051.446-.128.45-.195 1.337-.466 2.204-.466 1.665 0 2.46.686 2.46 2.26v.902c-1.067-.308-1.81-.416-2.712-.416-2.352 0-3.566 1.359-3.566 2.911 0 1.83 1.378 2.988 3.474 2.988zm.164-1.05c-1.665 0-2.588-.708-2.588-1.917 0-1.087.815-1.901 2.588-1.901.866 0 1.589.128 2.64.435v2.696c-.733.4-1.728.686-2.64.686z"/>
    </g>
</svg>
