<svg xmlns="http://www.w3.org/2000/svg" width="36" height="44" viewBox="0 0 36 44">
    <g fill="none" fill-rule="evenodd">
        <path d="M-6-2h48v48H-6z"/>
        <path fill="#D3D3D3" fill-rule="nonzero" d="M16.38.72l-14 6.22A4.017 4.017 0 0 0 0 10.6V20c0 11.1 7.68 21.48 18 24 10.32-2.52 18-12.9 18-24v-9.4c0-1.58-.94-3.02-2.38-3.66l-14-6.22a3.976 3.976 0 0 0-3.24 0zm-3.8 29.86L7.4 25.4c-.78-.78-.78-2.04 0-2.82.78-.78 2.04-.78 2.82 0L14 26.34l11.76-11.76c.78-.78 2.04-.78 2.82 0 .78.78.78 2.04 0 2.82L15.4 30.58c-.76.78-2.04.78-2.82 0z"/>
    </g>
</svg>
