<svg xmlns="http://www.w3.org/2000/svg" width="48" height="48" viewBox="0 0 48 48">
    <g fill="none" fill-rule="evenodd">
        <circle cx="24" cy="24" r="23" fill-rule="nonzero" stroke="#8a959d" stroke-width="2"/>
        <path fill="#8a959d" d="M34.462 17.924c.163-.525 0-.924-.773-.924h-2.521c-.65 0-.936.337-1.099.711 0 0-1.285 3.133-3.107 5.18-.6.586-.861.773-1.186.773-.162 0-.424-.187-.424-.724v-5.016c0-.637-.15-.924-.686-.924h-3.982c-.399 0-.636.3-.636.587 0 .599.936.748.998 2.458v3.72c0 .823-.15.973-.461.973-.849 0-2.946-3.158-4.181-6.752-.25-.699-.487-.986-1.136-.986h-2.533c-.712 0-.861.337-.861.711 0 .674.86 3.994 3.993 8.387 2.084 3.008 5.03 4.63 7.713 4.63 1.61 0 1.81-.362 1.81-.986v-2.271c0-.712.15-.861.66-.861.375 0 1.012.187 2.51 1.622 1.722 1.722 1.996 2.496 2.97 2.496h2.52c.724 0 1.086-.362.887-1.073-.225-.712-1.049-1.747-2.134-2.97-.587-.687-1.473-1.436-1.748-1.823-.374-.474-.262-.686 0-1.123 0 0 3.083-4.33 3.407-5.815z"/>
    </g>
</svg>
